<svg xmlns="http://www.w3.org/2000/svg" viewBox="0 0 350 350" width="350" height="350" style="width: 100%; height: 100%; transform: translate3d(0px, 0px, 0px); content-visibility: visible;" preserveAspectRatio="xMidYMid meet">
                                                                            <defs>
                                                                                <clipPath id="__lottie_element_55">
                                                                                    <rect width="350" height="350" x="0" y="0"></rect>
                                                                                </clipPath>
                                                                            </defs>
                                                                            <g clip-path="url(#__lottie_element_55)">
                                                                                <g style="display: block;" transform="matrix(1,0,0,1,169.25,206.78269958496094)" opacity="1">
                                                                                    <g opacity="1" transform="matrix(1,0,0,1,7.453000068664551,-43.275001525878906)">
                                                                                        <path stroke-linecap="butt" stroke-linejoin="miter" fill-opacity="0" stroke-miterlimit="4" stroke="rgb(255,208,133)" stroke-opacity="1" stroke-width="20" d=" M1.9628316164016724,-93.50933074951172 C1.9628316164016724,-93.50933074951172 1.9628316164016724,80.28874206542969 1.9628316164016724,80.28874206542969 C1.9628316164016724,81.37203216552734 1.0832867622375488,82.25157165527344 0,82.25157165527344 C0,82.25157165527344 0,82.25157165527344 0,82.25157165527344 C-1.0832867622375488,82.25157165527344 -1.9628316164016724,81.37203216552734 -1.9628316164016724,80.28874206542969 C-1.9628316164016724,80.28874206542969 -1.9628316164016724,-93.50933074951172 -1.9628316164016724,-93.50933074951172 C-1.9628316164016724,-94.59262084960938 -1.0832867622375488,-95.47216796875 0,-95.47216796875 C0,-95.47216796875 0,-95.47216796875 0,-95.47216796875 C1.0832867622375488,-95.47216796875 1.9628316164016724,-94.59262084960938 1.9628316164016724,-93.50933074951172z"></path>
                                                                                    </g>
                                                                                    <g opacity="1" transform="matrix(0.7903368473052979,-0.6126725673675537,0.3631984293460846,0.46851956844329834,41.29100036621094,-93.20700073242188)">
                                                                                        <path stroke-linecap="butt" stroke-linejoin="miter" fill-opacity="0" stroke-miterlimit="4" stroke="rgb(255,208,133)" stroke-opacity="1" stroke-width="20" d=" M1.9329999685287476,-85.56700134277344 C1.9329999685287476,-85.56700134277344 1.9329999685287476,85.56700134277344 1.9329999685287476,85.56700134277344 C1.9329999685287476,86.63381958007812 1.0668226480484009,87.5 0,87.5 C0,87.5 0,87.5 0,87.5 C-1.0668226480484009,87.5 -1.9329999685287476,86.63381958007812 -1.9329999685287476,85.56700134277344 C-1.9329999685287476,85.56700134277344 -1.9329999685287476,-85.56700134277344 -1.9329999685287476,-85.56700134277344 C-1.9329999685287476,-86.63381958007812 -1.0668226480484009,-87.5 0,-87.5 C0,-87.5 0,-87.5 0,-87.5 C1.0668226480484009,-87.5 1.9329999685287476,-86.63381958007812 1.9329999685287476,-85.56700134277344z"></path>
                                                                                    </g>
                                                                                    <g opacity="1" transform="matrix(0.7912448644638062,0.6114994287490845,-0.36250296235084534,0.4690578579902649,-26.167999267578125,-93.1719970703125)">
                                                                                        <path stroke-linecap="butt" stroke-linejoin="miter" fill-opacity="0" stroke-miterlimit="4" stroke="rgb(255,208,133)" stroke-opacity="1" stroke-width="20" d=" M1.9329999685287476,-85.56700134277344 C1.9329999685287476,-85.56700134277344 1.9329999685287476,85.56700134277344 1.9329999685287476,85.56700134277344 C1.9329999685287476,86.63381958007812 1.0668226480484009,87.5 0,87.5 C0,87.5 0,87.5 0,87.5 C-1.0668226480484009,87.5 -1.9329999685287476,86.63381958007812 -1.9329999685287476,85.56700134277344 C-1.9329999685287476,85.56700134277344 -1.9329999685287476,-85.56700134277344 -1.9329999685287476,-85.56700134277344 C-1.9329999685287476,-86.63381958007812 -1.0668226480484009,-87.5 0,-87.5 C0,-87.5 0,-87.5 0,-87.5 C1.0668226480484009,-87.5 1.9329999685287476,-86.63381958007812 1.9329999685287476,-85.56700134277344z"></path>
                                                                                    </g>
                                                                                </g>
                                                                                <g style="display: block;" transform="matrix(1,0,0,1,175,175)" opacity="1">
                                                                                   <g opacity="1" transform="matrix(1,0,0,1,-157.4669952392578,76.2760009765625)">
                                                                                    <path stroke-linecap="butt" stroke-linejoin="miter" fill-opacity="0" stroke-miterlimit="4" stroke="rgb(255,208,133)" stroke-opacity="1" stroke-width="20" d=" M3.0329999923706055,-70.74349975585938 C3.0329999923706055,-70.74349975585938 3.0329999923706055,70.74349975585938 3.0329999923706055,70.74349975585938 C3.0329999923706055,72.41741180419922 1.6739126443862915,73.77649688720703 0,73.77649688720703 C0,73.77649688720703 0,73.77649688720703 0,73.77649688720703 C-1.6739126443862915,73.77649688720703 -3.0329999923706055,72.41741180419922 -3.0329999923706055,70.74349975585938 C-3.0329999923706055,70.74349975585938 -3.0329999923706055,-70.74349975585938 -3.0329999923706055,-70.74349975585938 C-3.0329999923706055,-72.41741180419922 -1.6739126443862915,-73.77649688720703 0,-73.77649688720703 C0,-73.77649688720703 0,-73.77649688720703 0,-73.77649688720703 C1.6739126443862915,-73.77649688720703 3.0329999923706055,-72.41741180419922 3.0329999923706055,-70.74349975585938z"></path>
                                                                                </g>
                                                                                <g opacity="1" transform="matrix(1,0,0,1,149.37899780273438,76.69599914550781)">
                                                                                    <path stroke-linecap="butt" stroke-linejoin="miter" fill-opacity="0" stroke-miterlimit="4" stroke="rgb(255,208,133)" stroke-opacity="1" stroke-width="20" d=" M3.0329999923706055,-70.74349975585938 C3.0329999923706055,-70.74349975585938 3.0329999923706055,70.74349975585938 3.0329999923706055,70.74349975585938 C3.0329999923706055,72.41741180419922 1.6739126443862915,73.77649688720703 0,73.77649688720703 C0,73.77649688720703 0,73.77649688720703 0,73.77649688720703 C-1.6739126443862915,73.77649688720703 -3.0329999923706055,72.41741180419922 -3.0329999923706055,70.74349975585938 C-3.0329999923706055,70.74349975585938 -3.0329999923706055,-70.74349975585938 -3.0329999923706055,-70.74349975585938 C-3.0329999923706055,-72.41741180419922 -1.6739126443862915,-73.77649688720703 0,-73.77649688720703 C0,-73.77649688720703 0,-73.77649688720703 0,-73.77649688720703 C1.6739126443862915,-73.77649688720703 3.0329999923706055,-72.41741180419922 3.0329999923706055,-70.74349975585938z"></path>
                                                                                </g>
                                                                                <g opacity="1" transform="matrix(1,0,0,1,-1.5099999904632568,147.41600036621094)">
                                                                                    <path stroke-linecap="butt" stroke-linejoin="miter" fill-opacity="0" stroke-miterlimit="4" stroke="rgb(255,208,133)" stroke-opacity="1" stroke-width="20" d=" M153.489501953125,0 C153.489501953125,0 153.489501953125,0 153.489501953125,0 C153.489501953125,1.6090644598007202 152.1830596923828,2.9154999256134033 150.57400512695312,2.9154999256134033 C150.57400512695312,2.9154999256134033 -150.57400512695312,2.9154999256134033 -150.57400512695312,2.9154999256134033 C-152.1830596923828,2.9154999256134033 -153.489501953125,1.6090644598007202 -153.489501953125,0 C-153.489501953125,0 -153.489501953125,0 -153.489501953125,0 C-153.489501953125,-1.6090644598007202 -152.1830596923828,-2.9154999256134033 -150.57400512695312,-2.9154999256134033 C-150.57400512695312,-2.9154999256134033 150.57400512695312,-2.9154999256134033 150.57400512695312,-2.9154999256134033 C152.1830596923828,-2.9154999256134033 153.489501953125,-1.6090644598007202 153.489501953125,0z"></path>
                                                                                </g>
                                                                            </g>
                                                                        </g>
                                                                    </svg>